# xmcd
#
# Track frame offsets: 
#        150
#        19391
#        39716
#        59369
#        75161
#        93508
#        111033
#        128396
#        145890
#        163056
#
# Disc length: 2413 seconds
#
# Revision: 0
# Processed by: cddbd v1.5.2PL0 Copyright (c) Steve Scherf et al.
# Submitted via: ExactAudioCopy v0.99pb5
#
DISCID=7a096b0a
DTITLE=แฟรงค์แวงน้อย - แกนนำ
DYEAR=2011
DGENRE=Country
TTITLE0=เมดอินอีสาน
TTITLE1=แกนนำ
TTITLE2=ฮักอ้ายเบิ่งก่อนเป็นหยัง
TTITLE3=ซับน้ำตากับขางัว
TTITLE4=ก๊อกสอง
TTITLE5=ขอแจมนำแน
TTITLE6=ไปถืกหยังมา
TTITLE7=อยากถูกหวยเป็นเธอ
TTITLE8=หมาน้อยไม่ธรรมดา
TTITLE9=อยากจูบหอยกับน้อง
EXTD=
EXTT0=
EXTT1=
EXTT2=
EXTT3=
EXTT4=
EXTT5=
EXTT6=
EXTT7=
EXTT8=
EXTT9=
PLAYORDER=
